HIERARCHY
ROOT root
{
	OFFSET	0	13.1	24.9
	CHANNELS 6  Xposition Yposition Zposition Xrotation Yrotation Zrotation
	JOINT spine_1
	{
		OFFSET	0	9.99999	0
		CHANNELS 3  Xrotation Yrotation Zrotation
		JOINT spine_2
		{
			OFFSET	0	112	-10
			CHANNELS 3  Xrotation Yrotation Zrotation
			JOINT spine_3
			{
				OFFSET	0	206.5	19.3
				CHANNELS 3  Xrotation Yrotation Zrotation
				JOINT spine_4
				{
					OFFSET	0	110.4	14.6
					CHANNELS 3  Xrotation Yrotation Zrotation
					JOINT neck_1
					{
						OFFSET	0	71.8	-50.3
						CHANNELS 3  Xrotation Yrotation Zrotation
						JOINT neck_2
						{
							OFFSET	0	86.2	-25.8
							CHANNELS 3  Xrotation Yrotation Zrotation
							JOINT head_ee
							{
								OFFSET	0	179.8	-8.7
								CHANNELS 3  Xrotation Yrotation Zrotation
								End Site
								{
									OFFSET	1	0	0
								}
							}
						}
					}
					JOINT left_clavicle
					{
						OFFSET	-43.2	22.4	-70.8
						CHANNELS 3  Xrotation Yrotation Zrotation
						JOINT left_shoulder
						{
							OFFSET	-93.9	-5.79999	48.7
							CHANNELS 3  Xrotation Yrotation Zrotation
							JOINT left_elbow
							{
								OFFSET	-291.4	-30.8	15.2
								CHANNELS 3  Xrotation Yrotation Zrotation
								JOINT left_lowarm_twist
								{
									OFFSET	-110.7	-3.89999	13.6
									CHANNELS 3  Xrotation Yrotation Zrotation
									JOINT left_hand
									{
										OFFSET	-110.7	-3.89999	13.6
										CHANNELS 3  Xrotation Yrotation Zrotation
										JOINT left_ee
										{
											OFFSET	-80.8	-5.10001	12.1
											CHANNELS 3  Xrotation Yrotation Zrotation
											End Site
											{
												OFFSET	1	0	0
											}
										}
									}
								}
							}
						}
					}
					JOINT right_clavicle
					{
						OFFSET	43.2	22.4	-70.8
						CHANNELS 3  Xrotation Yrotation Zrotation
						JOINT right_shoulder
						{
							OFFSET	93.9	-5.79999	48.7
							CHANNELS 3  Xrotation Yrotation Zrotation
							JOINT right_elbow
							{
								OFFSET	291.4	-30.8	15.2
								CHANNELS 3  Xrotation Yrotation Zrotation
								JOINT right_lowarm_twist
								{
									OFFSET	110.7	-3.89999	13.6
									CHANNELS 3  Xrotation Yrotation Zrotation
									JOINT right_hand
									{
										OFFSET	110.7	-3.89999	13.6
										CHANNELS 3  Xrotation Yrotation Zrotation
										JOINT right_ee
										{
											OFFSET	80.8	-5.10001	12.1
											CHANNELS 3  Xrotation Yrotation Zrotation
											End Site
											{
												OFFSET	1	0	0
											}
										}
									}
								}
							}
						}
					}
				}
			}
		}
	}
	JOINT left_hip
	{
		OFFSET	-82.8	-127.5	0.300001
		CHANNELS 3  Xrotation Yrotation Zrotation
		JOINT left_knee
		{
			OFFSET	-28.2	-396.7	2.2
			CHANNELS 3  Xrotation Yrotation Zrotation
			JOINT left_ankle
			{
				OFFSET	-11.7	-411.3	35.4
				CHANNELS 3  Xrotation Yrotation Zrotation
				JOINT left_toes
				{
					OFFSET	0	-60	-88.6
					CHANNELS 3  Xrotation Yrotation Zrotation
					JOINT left_foot_ee
					{
						OFFSET	-22.5	-16.5	-42.2
						CHANNELS 3  Xrotation Yrotation Zrotation
						End Site
						{
							OFFSET	1	0	0
						}
					}
				}
			}
		}
	}
	JOINT right_hip
	{
		OFFSET	82.8	-127.5	0.300001
		CHANNELS 3  Xrotation Yrotation Zrotation
		JOINT right_knee
		{
			OFFSET	28.2	-396.7	2.2
			CHANNELS 3  Xrotation Yrotation Zrotation
			JOINT right_ankle
			{
				OFFSET	11.7	-411.3	35.4
				CHANNELS 3  Xrotation Yrotation Zrotation
				JOINT right_toes
				{
					OFFSET	0	-60	-88.6
					CHANNELS 3  Xrotation Yrotation Zrotation
					JOINT right_foot_ee
					{
						OFFSET	22.5	-16.5	-42.2
						CHANNELS 3  Xrotation Yrotation Zrotation
						End Site
						{
							OFFSET	1	0	0
						}
					}
				}
			}
		}
	}
}
MOTION
Frames: 9
Frame Time: 0.02
2400.47 646.981 -559.886 18.7141 -74.6031 29.2039 -3.54953 -0.271505 -1.79363 -3.54775 -0.156841 -1.80727 -3.54017 0.337296 -1.78243 -3.5446 0.0516089 -1.81332 -15.175 3.78079 -0.563051 -15.2246 7.56608 0.734341 -0.0 0.0 -0.0 5.64461 23.5293 10.5153 -40.2087 -35.2815 58.7231 0.438643 -12.2595 0.0471079 -67.9388 -6.28329 5.279 1.95168 -3.25977 11.8297 -0.0 0.0 -0.0 12.0434 20.3153 -24.0108 12.3884 18.6043 -43.0607 2.44533 50.4516 -1.15217 -3.0335 0.116711 -0.369711 0.522173 7.11336 -0.506509 0.0 0.0 0.0 29.1596 1.15871 -12.553 -0.647637 0.026125 0.0959533 11.271 10.7148 -1.59696 -23.3449 0.0 0.0 -0.0 0.0 -0.0 -24.3774 12.9661 -19.1302 -8.92639 -0.26333 -1.34324 17.1144 -18.2372 2.40993 12.4907 -0.0 -0.0 0.0 0.0 0.0 
2418.84 649.524 -564.749 20.0937 -74.7274 30.9343 -3.62704 -0.350978 -1.88092 -3.6251 -0.230601 -1.89943 -3.6144 0.293607 -1.89072 -3.61939 -0.00862529 -1.91335 -16.5872 4.46818 0.0953104 -16.6628 8.52025 1.69526 -0.0 0.0 -0.0 5.69437 23.4716 10.5888 -39.1401 -35.1778 59.0234 0.45413 -12.6785 0.0504518 -66.7199 -6.12832 5.26078 2.10785 -3.96234 12.6137 -0.0 0.0 -0.0 11.7908 20.1241 -23.4457 11.4589 18.1081 -44.1219 2.56528 51.7913 -1.24555 -3.74891 0.147081 -0.455979 0.624785 6.49884 -1.4597 0.0 0.0 0.0 29.2995 1.5091 -12.4547 -4.28072 0.152429 0.639126 9.09869 11.5627 -1.29986 -22.2137 0.0 0.0 -0.0 0.0 -0.0 -25.1748 13.5781 -18.9908 -9.64687 -0.2754 -1.45313 19.286 -16.4303 2.67646 12.1572 -0.0 -0.0 0.0 0.0 0.0 
2439.39 649.973 -569.377 21.0455 -75.1215 32.1069 -3.74082 -0.211722 -1.80556 -3.73901 -0.0964192 -1.81537 -3.73331 0.403669 -1.77256 -3.73768 0.118708 -1.81405 -16.8758 4.81742 0.0918995 -16.9667 9.19771 1.84314 -0.0 0.0 -0.0 5.75841 23.8605 10.6557 -38.8808 -34.8825 58.2221 0.456615 -12.7457 0.0509985 -64.8889 -5.89626 5.22718 2.1799 -3.28955 13.3908 -0.0 0.0 -0.0 11.587 19.4454 -23.0273 10.7156 17.5493 -45.2291 2.82419 54.4332 -1.45269 -4.11361 0.162978 -0.499812 0.634118 4.9097 -2.19367 0.0 0.0 0.0 29.9825 1.3734 -13.0729 -8.83316 0.261668 1.32903 4.06432 12.4379 -0.590136 -24.0037 0.0 0.0 -0.0 0.0 -0.0 -26.4627 13.6525 -18.6241 -10.1327 -0.282759 -1.52732 19.778 -17.485 2.74765 10.5659 -0.0 -0.0 0.0 0.0 0.0 
2455.51 653.982 -576.344 21.5052 -75.3399 32.1477 -3.72831 -0.294964 -1.80814 -3.72651 -0.179329 -1.82324 -3.71801 0.325551 -1.80289 -3.72254 0.0367824 -1.83167 -18.7603 5.54084 1.95108 -18.8679 9.63688 4.01885 -0.0 0.0 -0.0 6.35762 24.2026 11.4704 -39.4724 -35.9139 56.3573 0.465772 -12.9927 0.0530381 -64.5792 -5.85712 5.22077 2.12938 -1.92843 13.6007 -0.0 0.0 -0.0 10.9359 20.0135 -21.5085 8.15329 18.362 -45.5618 3.04505 56.4462 -1.63459 -4.77484 0.192511 -0.579024 0.789427 6.23697 -2.68209 0.0 0.0 0.0 29.8326 1.5935 -12.8689 -10.9952 0.294271 1.65915 1.8153 9.90312 -0.264564 -23.676 0.0 0.0 -0.0 0.0 -0.0 -27.8833 13.7366 -17.5515 -9.63083 -0.275147 -1.45068 21.4116 -19.4565 2.97394 11.0547 -0.0 -0.0 0.0 0.0 0.0 
2472.66 655.75 -578.561 19.6114 -75.8991 30.5839 -3.81687 -0.280743 -1.85924 -3.81496 -0.161887 -1.87333 -3.80671 0.358886 -1.84575 -3.81146 0.0629337 -1.87926 -19.0071 5.87415 1.93255 -19.1351 10.3 4.16083 -0.0 0.0 -0.0 6.28347 23.4856 11.4215 -38.2068 -35.1407 56.6446 0.478833 -13.3441 0.0560135 -63.237 -5.68785 5.1905 2.27778 -2.66835 14.3251 -0.0 0.0 -0.0 10.5099 20.6185 -20.5022 8.12077 18.7303 -46.8809 3.16794 57.4812 -1.73763 -3.65882 0.143197 -0.445136 0.754038 4.57176 -3.14457 0.0 0.0 0.0 29.6437 1.64259 -13.0771 -10.203 0.283771 1.53806 -3.28066 13.1774 0.485176 -24.4854 0.0 0.0 -0.0 0.0 -0.0 -28.5477 13.9228 -17.2386 -9.25877 -0.26907 -1.39392 23.5145 -15.5121 3.19339 11.2597 -0.0 -0.0 0.0 0.0 0.0 
2490.38 658.146 -584.729 17.769 -76.6587 28.5947 -3.73408 -0.121077 -1.9783 -3.7319 0.00502767 -1.98199 -3.72915 0.546754 -1.90512 -3.73413 0.239075 -1.96753 -17.8529 6.52537 2.25654 -17.9893 11.3212 4.60172 -0.0 0.0 -0.0 6.4109 23.5267 11.5992 -37.838 -35.2652 55.869 0.506759 -14.0921 0.0626362 -62.3804 -5.58018 5.1691 2.16705 -0.932181 14.265 -0.0 0.0 -0.0 10.1586 21.437 -19.6483 6.90445 18.5906 -46.7679 3.1413 57.2617 -1.71519 -3.70735 0.145287 -0.450978 0.662496 2.91381 -3.22145 0.0 0.0 0.0 29.2229 1.64734 -13.2965 -12.079 0.30592 1.82503 1.31262 9.40134 -0.191507 -25.7555 0.0 0.0 -0.0 0.0 -0.0 -28.4857 13.8968 -16.7622 -9.19099 -0.267924 -1.38358 15.0913 -18.5016 2.14372 11.6523 -0.0 -0.0 0.0 0.0 0.0 
2506.76 668.425 -595.873 16.8223 -76.9971 27.6078 -3.82327 -0.176158 -2.05584 -3.82092 -0.0450104 -2.06288 -3.81597 0.523754 -1.99582 -3.82147 0.202049 -2.05346 -17.0025 6.41075 4.12168 -17.0604 10.0085 6.2034 -0.0 0.0 -0.0 7.51555 24.4343 13.0756 -37.7427 -34.7884 54.3974 0.510238 -14.185 0.0634862 -61.2722 -5.44137 5.13902 1.43874 5.56411 11.8408 -0.0 0.0 -0.0 9.90717 21.6242 -19.0695 5.74944 17.0149 -47.3523 3.17361 57.5275 -1.7424 -4.02315 0.159008 -0.488948 0.549692 5.40974 -1.4135 0.0 0.0 0.0 29.0121 1.5402 -13.1999 -15.3542 0.322034 2.32722 4.63414 3.9356 -0.671835 -28.8733 0.0 0.0 -0.0 0.0 -0.0 -28.4621 14.091 -16.1 -7.92814 -0.244325 -1.19123 6.48893 -21.7153 0.959923 13.2365 -0.0 -0.0 0.0 0.0 0.0 
2526.71 671.438 -603.618 16.045 -76.9314 26.8778 -3.84308 -0.199929 -2.13758 -3.84054 -0.0635364 -2.14596 -3.83451 0.529459 -2.08062 -3.8405 0.194298 -2.1381 -16.1331 6.75917 4.07965 -16.1952 10.6198 6.20477 -0.0 0.0 -0.0 8.04385 24.7144 13.7877 -37.3919 -34.742 53.3979 0.514 -14.2853 0.0644112 -61.2489 -5.43847 5.13836 1.56413 7.07898 13.2534 -0.0 0.0 -0.0 9.99959 22.5598 -19.1972 5.75583 16.6073 -47.4828 2.78782 54.0813 -1.42317 -4.78217 0.192843 -0.5799 0.680921 3.70589 -3.01451 0.0 0.0 0.0 27.4192 1.29052 -13.1439 -18.5653 0.309953 2.81969 13.9725 -0.440431 -1.97668 -33.1999 0.0 0.0 -0.0 0.0 -0.0 -29.6361 14.8726 -15.731 -6.85753 -0.221 -1.0286 -0.356927 -22.844 -0.0539766 18.9388 -0.0 -0.0 0.0 0.0 0.0 
2543.0 676.605 -608.771 18.1666 -77.6181 28.7704 -4.10842 -0.263486 -1.94407 -4.10633 -0.13927 -1.95689 -4.09824 0.413377 -1.91781 -4.10336 0.105368 -1.959 -16.5517 6.89552 4.57026 -16.6068 10.6435 6.75384 -0.0 0.0 -0.0 8.58026 24.8174 14.5344 -37.0177 -34.5541 52.6739 0.557906 -15.4494 0.0756772 -60.7711 -5.3788 5.12454 1.16802 10.7778 11.9966 -0.0 0.0 -0.0 9.36483 22.6735 -17.769 5.6849 16.8602 -49.7609 2.81104 54.3066 -1.442 -5.5798 0.229697 -0.674994 0.739314 3.39803 -3.53669 0.0 0.0 0.0 26.1732 0.914227 -13.3024 -18.4539 0.310834 2.80263 16.8806 -7.05455 -2.41277 -39.2008 0.0 0.0 -0.0 0.0 -0.0 -30.8507 14.7245 -14.8424 -5.96605 -0.199261 -0.893518 -6.89 -24.9449 -1.06531 23.7014 -0.0 -0.0 0.0 0.0 0.0 
